<svg data-v-09eb608e="" version="1.0" xmlns="http://www.w3.org/2000/svg" xmlns:xlink="http://www.w3.org/1999/xlink" width="100%" height="100%" viewBox="0 0 340.000000 250.000000" preserveAspectRatio="xMidYMid meet" color-interpolation-filters="sRGB" class="el-tooltip" style="margin: auto;"><rect data-v-09eb608e="" x="0" y="0" width="100%" height="100%" fill="#fff" fill-opacity="1"></rect>  <g data-v-09eb608e="" fill="#f39f14" class="icon-text-wrapper icon-svg-group iconsvg" transform="translate(52.61656951904297,85.71345138549805)"><g class="iconsvg-imagesvg" transform="translate(0,0)"><rect fill="#f39f14" fill-opacity="0" stroke-width="2" x="0" y="0" width="60" height="78.541082164329" class="image-rect"></rect> <svg x="0" y="0" width="60" height="78.541082164329" filtersec="colorsb265290464" class="image-svg-svg"><svg xmlns="http://www.w3.org/2000/svg" viewBox="0 0 99.8 130.64"><g><g><path d="M46.57 25s-2.07-4.21 1.18-11.79L51 5.59s-2-1.59.21-4.37 5.57-.38 5.15 2.36a3.48 3.48 0 0 1-3.22 2.89 56.47 56.47 0 0 0-4.29 10.91c-1.68 6.1.13 7.47.13 7.47zM42.5 28.08s-4-6.3-2.59-12.69 1.77-7.76 1.77-7.76 3.5-2.51 2-5.62-6-1.32-6.05 2 1.69 3.58 1.69 3.58a34.72 34.72 0 0 0-1.87 11.51 26.57 26.57 0 0 0 3.2 10.78z" fill="#f39f14"></path><path d="M55.93 24.89s-1.08-11.22 3.16-11.79 6.16 3.27 3.43 6.92-4.12 5.13-4.12 5.13z" fill="#eed387"></path><path d="M60.73 16.65c-1.5-1-2.95 1-3.36 2.14a12 12 0 0 0-.37 5.46.67.67 0 0 0 1.21.26.62.62 0 0 0 .35-.14 10.12 10.12 0 0 0 2.25-3.89c.43-1.06 1.11-3.01-.08-3.83z" fill="#f39f14"></path><path d="M32.59 27.12s-4.28-11-10.06-8.31-1.7 7.39 1.76 7.78A38.26 38.26 0 0 1 30.87 28z" fill="#eed387"></path><path d="M31.54 27.21a.67.67 0 0 0 .3-.47.53.53 0 0 0-.16-.48 10 10 0 0 0-4.93-4.43c-1.25-.41-3.19-.16-4 1-1.06 1.56 1.53 2.69 2.55 3s2 .38 2.94.75a6.26 6.26 0 0 0 2.9.8.72.72 0 0 0 .4-.17z" fill="#f39f14"></path><path d="M78.83 61.68L95.25 54s-7.42-31.59-51-30.76-62 68.86-22.72 95.66 65.05 1.5 73.25-13.23a38 38 0 0 0 3.7-28.72H58.24l2.13 16.92 21-.5S68 117.1 42.15 108.9 7.38 56.56 30.37 44.59c33.32-17.36 48.46 17.09 48.46 17.09z" fill="#eeb81e"></path><path d="M63.21 43.9s2-7 5.79-6.42 7.22 3.85 11.53 3.85 4.8 2.94 4 6-6.25 4.6-7.41 7S75.56 56 75.56 56s-6.24-8.71-12.35-12.1zM61.24 28.2c-2.18.42-1.65 2.94 0 5.88s8.55 1 9.19-1.1-6.34-5.33-9.19-4.78zM25 31.86c-3.49 1.36-3.58 2.59-4.5 6s-6.33 4-4.13 7.17 8.08 3.68 8.08 3.68A19.56 19.56 0 0 1 28 46c2.34-1.4 2.77-1.63 2.77-1.63s4.63-5.54 3-8.78-6.88-4.48-8.77-3.73zM10.13 42.67s3.54 2.89 3.17 5.33-1.65 8.49-.83 11-2.29 5.9-4.4 4.1A46.11 46.11 0 0 1 3 57.31s2.75-9.08 7.13-14.64zM17.16 51.5c-1.56.34-2 4.44-1.38 5.36s2.59-2.58 3.18-3.31.04-2.44-1.8-2.05zM3.66 66C.44 68.25 1.89 73.3 3 77.8S4.76 91 9.81 90.1s8.08-4.34 5.33-13.19S6.78 63.72 3.66 66zM19.57 84.29s-5 9.67-4.07 15 6.62 13.31 6.62 16.62 8.17-.91 9.09-4 5.63-5.28 5.63-5.28a43.83 43.83 0 0 1-17.27-22.34zM34.24 112.34c-2.21.6-4 1.41-2.3 6.39s7.17 6.18 12.86 7.38 5.05-2.65 4.5-6.88-.82-7.45-5.42-6.26-6.61-1.44-9.64-.63zM10.18 94.05c-3.81-.6-3.86 6-.74 8.45s4.78-7.8.74-8.45zM38.67 23.69s-4.89 2.67-4.2 4.81 5 3.86 5.23 6.61 3.24.76 7.24-.89 6.06.55 7.37-1.59-.55-9.07-.55-9.07-9.23-1.27-15.09.13zM56.93 36.08c-2.09.1-4.41.26-4.55 1.37s3 .14 5.44 1.86 4.13.76 4.55-.69-2.55-2.68-5.44-2.54zM75.68 30.13s-2.11 2.16-1.68 4.16 2.8 1.49 5.84 2.19 3.63 1.72 5 2.86a2.65 2.65 0 0 0 2.69.56s-5.74-6.9-11.85-9.77zM89.9 43s-1.91-.14-1.56 3.09-.35 4.27-2.21 7.38a7.68 7.68 0 0 0-1.28 5.41L95.25 54s-2.62-8.81-5.35-11zM56.93 130.58s-1.18-3.2 2.55-6 11.64-4.49 15.22-4.29a13.54 13.54 0 0 1 5.83 1.59s-10.37 8.5-23.6 8.7zM79 101.65c-3.21 3.33-7 4.27-8.89 7.72s-6.82 3-5.58 6.2 15.36 2.68 19.66-1.45 8.34-6.68 6.46-12.05-9.82-2.28-11.65-.42zM71.48 93.57s-8.08-8.24-5.74-12.1 4.07-2.55 10.82-2.62 9.23-3.58 14.19.14 8.39 8.2 3.75 10.68-13.12 3.66-13.12 3.66z" fill="#bb5216"></path></g></g></svg></svg> <!----></g> <g transform="translate(67.02366638183594,19.073631286621094)"><g class="tp-name iconsvg-namesvg" transform="translate(0,0)"><g><path d="M1.14-1.61L1.14-8.80L1.14-8.80Q1.14-9.47 1.47-10.15L1.47-10.15L1.47-10.15Q2.14-11.47 3.84-11.47L3.84-11.47L14.59-11.47L14.59-11.47Q15.27-11.47 15.94-11.15L15.94-11.15L15.94-11.15Q17.29-10.47 17.29-8.80L17.29-8.80L17.29 2.86L17.29 2.86Q17.29 3.54 16.97 4.21L16.97 4.21L16.97 4.21Q16.29 5.56 14.59 5.56L14.59 5.56L1.14 5.56L1.14 4.21L12.80 4.21L12.80 4.21Q13.71 4.21 13.71 3.33L13.71 3.33L13.71 1.07L3.84 1.07L3.84 1.07Q2.14 1.07 1.47-0.28L1.47-0.28L1.47-0.28Q1.14-0.95 1.14-1.61L1.14-1.61ZM13.71-0.28L13.71-9.24L13.71-9.24Q13.71-10.15 12.80-10.15L12.80-10.15L5.63-10.15L5.63-10.15Q4.72-10.15 4.72-9.24L4.72-9.24L4.72-1.16L4.72-1.16Q4.72-0.28 5.63-0.28L5.63-0.28L13.71-0.28ZM23.16 1.09L19.57 1.09L19.57-11.47L23.16-11.47L23.16 1.09ZM23.16-13.27L19.57-13.27L19.57-16.85L23.16-16.85L23.16-13.27ZM33.52 1.09L29.93 1.09L29.93-10.12L25.44-10.12L25.44-11.47L29.93-11.47L29.93-14.17L29.93-14.17Q29.93-15.85 31.28-16.53L31.28-16.53L31.28-16.53Q31.93-16.85 32.61-16.85L32.61-16.85L38.01-16.85L38.01-15.50L34.40-15.50L34.40-15.50Q33.52-15.50 33.52-14.62L33.52-14.62L33.52-11.47L38.01-11.47L38.01-10.12L33.52-10.12L33.52 1.09ZM61.82-15.50L61.82-16.85L42.99-16.85L42.99-16.85Q42.31-16.85 41.64-16.53L41.64-16.53L41.64-16.53Q40.29-15.85 40.29-14.17L40.29-14.17L40.29-1.61L40.29-1.61Q40.29-0.93 40.64-0.26L40.64-0.26L40.64-0.26Q41.31 1.09 42.99 1.09L42.99 1.09L61.82 1.09L61.82-0.26L44.78-0.26L44.78-0.26Q43.87-0.26 43.87-1.16L43.87-1.16L43.87-14.62L43.87-14.62Q43.87-15.50 44.78-15.50L44.78-15.50L61.82-15.50ZM80.28 1.09L80.28-0.26L80.28-0.26Q79.37-0.26 79.37-1.16L79.37-1.16L79.37-11.47L66.82-11.47L66.82-11.47Q66.15-11.47 65.47-11.15L65.47-11.15L65.47-11.15Q64.12-10.47 64.12-8.77L64.12-8.77L64.12-1.61L64.12-1.61Q64.12-0.93 64.45-0.26L64.45-0.26L64.45-0.26Q65.12 1.09 66.82 1.09L66.82 1.09L74.43 1.09L74.43 1.09Q75.74 1.09 76.46 0.26L76.46 0.26L76.46 0.26Q77.16 1.09 78.48 1.09L78.48 1.09L80.28 1.09ZM75.78-10.12L75.78-1.61L75.78-1.61Q75.76-0.26 74.43-0.26L74.43-0.26L68.61-0.26L68.61-0.26Q67.71-0.26 67.71-1.16L67.71-1.16L67.71-9.24L67.71-9.24Q67.71-10.12 68.61-10.12L68.61-10.12L75.78-10.12ZM86.14 5.56L86.14 1.07L96.01 1.07L96.01 1.07Q96.68 1.07 97.36 0.74L97.36 0.74L97.36 0.74Q98.71 0.07 98.71-1.61L98.71-1.61L98.71-8.80L98.71-8.80Q98.71-9.47 98.38-10.15L98.38-10.15L98.38-10.15Q97.71-11.47 96.01-11.47L96.01-11.47L82.56-11.47L82.56 5.56L86.14 5.56ZM86.14-0.28L86.14-10.15L94.22-10.15L94.22-10.15Q95.12-10.15 95.12-9.24L95.12-9.24L95.12-1.16L95.12-1.16Q95.12-0.28 94.22-0.28L94.22-0.28L86.14-0.28ZM109.07-16.85L105.48-16.85L105.48-11.47L100.99-11.47L100.99-10.12L105.48-10.12L105.48-1.61L105.48-1.61Q105.48 0.07 106.83 0.74L106.83 0.74L106.83 0.74Q107.48 1.09 108.16 1.09L108.16 1.09L113.56 1.09L113.56-0.26L109.95-0.26L109.95-0.26Q109.07-0.26 109.07-1.16L109.07-1.16L109.07-10.12L113.56-10.12L113.56-11.47L109.07-11.47L109.07-16.85ZM131.99-10.12L131.99-11.47L118.54-11.47L118.54-11.47Q117.86-11.47 117.19-11.15L117.19-11.15L117.19-11.15Q115.84-10.47 115.84-8.77L115.84-8.77L115.84-1.61L115.84-1.61Q115.84-0.93 116.17-0.26L116.17-0.26L116.17-0.26Q116.84 1.09 118.54 1.09L118.54 1.09L131.99 1.09L131.99-0.26L120.33-0.26L120.33-0.26Q119.42-0.26 119.42-1.16L119.42-1.16L119.42-9.24L119.42-9.24Q119.42-10.12 120.33-10.12L120.33-10.12L131.99-10.12ZM137.86 1.09L134.27 1.09L134.27-16.85L137.86-16.85L137.86-11.47L147.73-11.47L147.73-11.47Q149.40-11.47 150.08-10.12L150.08-10.12L150.08-10.12Q150.43-9.45 150.43-8.77L150.43-8.77L150.43 1.09L146.84 1.09L146.84-9.24L146.84-9.24Q146.84-10.12 145.93-10.12L145.93-10.12L137.86-10.12L137.86 1.09ZM168.86 1.09L168.86-0.26L168.86-0.26Q167.95-0.26 167.95-1.16L167.95-1.16L167.95-11.47L155.41-11.47L155.41-11.47Q154.73-11.47 154.06-11.15L154.06-11.15L154.06-11.15Q152.71-10.47 152.71-8.77L152.71-8.77L152.71-1.61L152.71-1.61Q152.71-0.93 153.03-0.26L153.03-0.26L153.03-0.26Q153.71 1.09 155.41 1.09L155.41 1.09L163.02 1.09L163.02 1.09Q164.32 1.09 165.04 0.26L165.04 0.26L165.04 0.26Q165.74 1.09 167.07 1.09L167.07 1.09L168.86 1.09ZM164.37-10.12L164.37-1.61L164.37-1.61Q164.34-0.26 163.02-0.26L163.02-0.26L157.20-0.26L157.20-0.26Q156.29-0.26 156.29-1.16L156.29-1.16L156.29-9.24L156.29-9.24Q156.29-10.12 157.20-10.12L157.20-10.12L164.37-10.12Z" transform="translate(-1.1404709748083, 16.851040525739)"></path></g> <!----> <!----> <!----> <!----> <!----> <!----> <!----></g> <g class="tp-slogan iconsvg-slogansvg" fill="#bb5216" transform="translate(24.654998779296875,29.40999984741211)"><!----> <!----> <!----> <g><path d="M11.16-4.97L11.16-4.97L11.16-3.80L11.16-3.80Q10.41-3.89 9-3.89L9-3.89L3.05-3.89L3.05-3.89Q1.55-3.89 0.75-3.80L0.75-3.80L0.75-4.97L0.75-4.97Q1.64-4.88 2.95-4.88L2.95-4.88L8.91-4.88L8.91-4.88Q10.41-4.88 11.16-4.97ZM17.39-9.80L17.39-9.80L17.39-9.80Q18.38-9.52 18.61-9.38L18.61-9.38L18.61-9.38Q18.61-9.28 18.47-9.23L18.47-9.23L18.47-9.23Q18.33-9.14 18.28-9.05L18.28-9.05L18.28-9.05Q19.73-6.09 23.44-5.25L23.44-5.25L23.44-5.25Q22.92-4.92 22.45-4.13L22.45-4.13L22.45-4.13Q18.98-5.77 17.77-8.34L17.77-8.34L17.77-8.34Q16.55-5.95 13.36-3.80L13.36-3.80L13.36-3.80Q12.84-4.41 12.33-4.64L12.33-4.64L12.33-4.64Q16.17-6.33 17.39-9.80ZM17.16-5.95L17.16-5.95L17.16-5.95Q17.25-5.95 17.39-5.95L17.39-5.95L17.39-5.95Q18.61-5.86 18.56-5.81L18.56-5.81L18.56-5.81Q18.56-5.77 18.52-5.72L18.52-5.72L18.52-5.72Q18.33-5.30 18.33-4.83L18.33-4.83L18.33-0.47L18.33-0.47Q18.33 0.66 18.42 1.22L18.42 1.22L17.16 1.22L17.16 1.22Q17.25 0.56 17.25-0.47L17.25-0.47L17.25-4.55L17.25-4.55Q17.25-5.06 17.20-5.58L17.20-5.58L17.20-5.58Q17.16-5.86 17.16-5.95ZM30.66-9.66L30.66-9.66L30.66-9.66Q31.88-9.56 31.88-9.38L31.88-9.38L31.88-9.38Q31.88-9.28 31.78-9.23L31.78-9.23L31.78-9.23Q31.64-9.05 31.64-8.72L31.64-8.72L31.64-7.45L31.64-7.45Q32.58-7.88 33.89-8.86L33.89-8.86L33.89-8.86Q34.73-8.11 34.69-7.92L34.69-7.92L34.69-7.92Q34.64-7.88 34.36-7.83L34.36-7.83L34.36-7.83Q34.03-7.73 33.75-7.64L33.75-7.64L33.75-7.64Q33.38-7.50 32.86-7.27L32.86-7.27L32.86-7.27Q32.20-6.98 31.64-6.75L31.64-6.75L31.64-5.91L31.64-5.91Q31.64-5.77 32.39-5.72L32.39-5.72L32.39-5.72Q33.38-5.67 33.70-5.81L33.70-5.81L33.70-5.81Q34.03-5.95 34.03-6.98L34.03-6.98L34.03-6.98Q34.64-6.52 35.16-6.33L35.16-6.33L35.16-6.33Q34.83-5.02 34.08-4.88L34.08-4.88L34.08-4.88Q32.95-4.73 31.78-4.88L31.78-4.88L31.78-4.88Q30.75-5.02 30.75-5.58L30.75-5.58L30.75-5.58Q30.80-8.30 30.66-9.52L30.66-9.52L30.66-9.52Q30.66-9.61 30.66-9.66ZM26.86-9.56L26.86-9.56L26.86-9.56Q27.98-9.19 27.98-9.05L27.98-9.05L27.98-9.05Q27.94-8.95 27.75-8.77L27.75-8.77L27.75-8.77Q27.56-8.63 27.47-8.53L27.47-8.53L27.47-8.53Q27.38-8.39 26.95-7.88L26.95-7.88L26.95-7.88Q26.25-6.89 26.02-6.66L26.02-6.66L28.78-6.84L28.78-6.84Q28.45-7.36 27.89-7.88L27.89-7.88L28.73-8.39L28.73-8.39Q29.86-7.17 30.38-6.19L30.38-6.19L29.34-5.63L29.34-5.63Q29.25-5.91 29.11-6.19L29.11-6.19L29.11-6.19Q26.86-6.05 25.08-5.63L25.08-5.63L24.70-6.70L24.70-6.70Q25.22-6.80 25.59-7.31L25.59-7.31L25.59-7.31Q26.30-8.20 26.86-9.56ZM30.66-4.55L30.66-4.55L30.66-4.55Q30.80-4.55 31.03-4.50L31.03-4.50L31.03-4.50Q31.88-4.41 31.83-4.31L31.83-4.31L31.83-4.31Q31.83-4.27 31.73-4.13L31.73-4.13L31.73-4.13Q31.64-3.94 31.64-3.80L31.64-3.80L31.64-2.34L31.64-2.34Q33.33-3.19 33.94-3.75L33.94-3.75L33.94-3.75Q34.13-3.52 34.36-3.19L34.36-3.19L34.36-3.19Q34.73-2.81 34.69-2.77L34.69-2.77L34.69-2.77Q34.69-2.72 34.50-2.67L34.50-2.67L34.50-2.67Q34.22-2.63 33.98-2.53L33.98-2.53L33.98-2.53Q33.94-2.48 31.83-1.73L31.83-1.73L31.83-1.73Q31.69-1.64 31.64-1.64L31.64-1.64L31.64-0.42L31.64-0.42Q31.69 0 32.44-0.09L32.44-0.09L32.44-0.09Q33.70-0.19 33.84-0.28L33.84-0.28L33.84-0.28Q34.22-0.52 34.17-1.45L34.17-1.45L34.17-1.45Q34.73-1.03 35.25-0.84L35.25-0.84L35.25-0.84Q34.83 0.47 34.31 0.61L34.31 0.61L34.31 0.61Q34.08 0.70 33.14 0.75L33.14 0.75L33.14 0.75Q32.25 0.75 31.69 0.70L31.69 0.70L31.69 0.70Q30.80 0.61 30.75 0L30.75 0L30.75-3.38L30.75-3.38Q30.75-4.13 30.66-4.55ZM28.78-3.38L28.78-4.41L26.25-4.41L26.25-3.38L28.78-3.38ZM28.78-1.64L28.78-2.72L26.25-2.72L26.25-1.64L28.78-1.64ZM29.72-5.25L29.72-5.25L29.72-5.25Q29.63-4.73 29.63-4.41L29.63-4.41L29.63 0.28L29.63 0.28Q29.58 0.89 27.89 1.13L27.89 1.13L27.89 1.13Q27.89 0.42 27.47-0.05L27.47-0.05L27.47-0.05Q28.55 0.14 28.78-0.09L28.78-0.09L28.78-0.98L26.25-0.98L26.25-0.19L26.25-0.19Q26.20 0.33 26.34 1.08L26.34 1.08L25.22 1.08L25.22 1.08Q25.31 0.19 25.31-0.19L25.31-0.19L25.31-4.41L25.31-4.41Q25.31-4.88 25.22-5.25L25.22-5.25L25.22-5.25Q25.97-5.16 26.39-5.16L26.39-5.16L28.31-5.16L28.31-5.16Q28.73-5.16 29.72-5.25ZM43.27-9.70L43.27-9.70L43.27-9.70Q44.58-9.61 44.77-9.42L44.77-9.42L44.77-9.42Q44.77-9.38 44.67-9.23L44.67-9.23L44.67-9.23Q44.58-9 44.53-8.86L44.53-8.86L44.53-8.86Q44.39-8.30 44.34-7.36L44.34-7.36L44.34-7.36Q44.34-7.13 44.34-6.98L44.34-6.98L45.61-6.98L45.61-6.98Q46.13-6.98 46.73-7.03L46.73-7.03L46.73-7.03Q46.92-7.03 46.97-7.03L46.97-7.03L46.97-7.03Q47.06-7.08 47.11-6.98L47.11-6.98L47.11-6.98Q46.59 0.38 46.31 0.05L46.31 0.05L46.31 0.05Q46.03 0.61 44.34 0.75L44.34 0.75L44.34 0.75Q44.39 0.28 43.97-0.38L43.97-0.38L43.97-0.38Q45.23-0.23 45.47-0.66L45.47-0.66L45.47-0.66Q45.75-0.94 45.98-6.09L45.98-6.09L44.30-6.09L44.30-6.09Q44.16-0.33 40.83 1.13L40.83 1.13L40.83 1.13Q40.55 0.70 39.66 0.28L39.66 0.28L39.66 0.28Q43.27-0.47 43.31-6.09L43.31-6.09L42.75-6.09L42.75-6.09Q42.23-6.09 41.77-5.95L41.77-5.95L41.77-5.95Q41.72-5.95 41.72-5.95L41.72-5.95L41.72-5.02L41.72-5.02Q41.72-5.02 41.63-5.02L41.63-5.02L41.63-5.02Q41.06-5.11 40.17-5.11L40.17-5.11L39.84-5.11L39.84-5.11Q39-2.67 38.30-1.59L38.30-1.59L40.64-2.25L40.64-2.25Q40.31-2.91 40.03-3.42L40.03-3.42L40.88-3.80L40.88-3.80Q41.53-2.67 42.05-1.36L42.05-1.36L41.11-0.84L41.11-0.84Q41.06-1.08 40.97-1.36L40.97-1.36L40.97-1.36Q40.97-1.36 40.92-1.45L40.92-1.45L40.92-1.45Q38.91-0.89 37.59-0.42L37.59-0.42L37.59-0.42Q37.31-0.33 37.27-0.33L37.27-0.33L36.75-1.36L36.75-1.36Q36.80-1.41 36.89-1.41L36.89-1.41L36.89-1.41Q37.78-1.69 38.77-5.06L38.77-5.06L38.30-5.06L38.30-5.06Q37.50-5.06 36.84-4.97L36.84-4.97L36.84-4.97Q36.70-4.97 36.70-4.97L36.70-4.97L36.70-6.05L36.70-6.05Q36.70-6.05 36.84-6.05L36.84-6.05L36.84-6.05Q37.50-5.95 38.30-5.95L38.30-5.95L40.08-5.95L40.08-5.95Q40.78-5.95 41.25-6.05L41.25-6.05L41.25-6.05Q41.34-6.05 41.34-6.05L41.34-6.05L41.34-7.03L41.34-7.03Q41.39-7.03 41.58-7.03L41.58-7.03L41.58-7.03Q42.19-6.94 42.75-6.94L42.75-6.94L43.36-6.94L43.36-6.94Q43.36-9.19 43.27-9.70ZM37.22-7.50L37.22-8.58L37.22-8.58Q37.22-8.58 37.36-8.58L37.36-8.58L37.36-8.58Q38.02-8.48 38.86-8.48L38.86-8.48L39.80-8.48L39.80-8.48Q40.69-8.48 41.34-8.58L41.34-8.58L41.34-8.58Q41.48-8.58 41.48-8.58L41.48-8.58L41.48-7.50L41.48-7.50Q41.44-7.50 41.34-7.50L41.34-7.50L41.34-7.50Q40.83-7.59 39.84-7.59L39.84-7.59L38.81-7.59L38.81-7.59Q38.06-7.59 37.41-7.50L37.41-7.50L37.41-7.50Q37.27-7.50 37.22-7.50L37.22-7.50ZM55.41-9.75L55.41-9.75L55.41-9.75Q56.67-9.38 56.67-9.23L56.67-9.23L56.67-9.23Q56.67-9.19 56.58-9.14L56.58-9.14L56.58-9.14Q56.39-9.05 56.34-8.86L56.34-8.86L56.34-8.86Q55.92-8.16 55.69-7.41L55.69-7.41L57.42-7.41L57.42-7.41Q58.45-7.41 59.02-7.45L59.02-7.45L59.02-7.45Q58.64-1.31 58.55-0.23L58.55-0.23L58.55-0.23Q58.41 1.08 55.97 1.17L55.97 1.17L55.97 1.17Q55.83 0.47 55.41-0.05L55.41-0.05L55.41-0.05Q56.67 0.19 57.33-0.09L57.33-0.09L57.33-0.09Q57.66-0.05 57.80-4.27L57.80-4.27L57.80-4.27Q57.89-5.77 57.94-6.66L57.94-6.66L55.36-6.66L55.36-6.66Q54.89-5.77 54.23-4.59L54.23-4.59L54.23-4.59Q53.81-4.88 53.39-4.97L53.39-4.97L53.39-0.75L53.39-0.75Q53.39 0.42 53.44 0.75L53.44 0.75L52.36 0.75L52.36 0.75Q52.41 0.33 52.41-0.38L52.41-0.38L50.11-0.38L50.11-0.38Q50.11 0.33 50.16 0.84L50.16 0.84L49.08 0.84L49.08 0.84Q49.13 0.42 49.13-0.70L49.13-0.70L49.13-5.72L49.13-5.72Q49.13-5.91 49.08-6.61L49.08-6.61L49.08-6.61Q49.08-7.22 49.08-7.36L49.08-7.36L49.08-7.36Q49.78-7.31 50.11-7.31L50.11-7.31L50.44-7.31L50.44-7.31Q50.58-8.06 50.67-9.61L50.67-9.61L50.67-9.61Q51.98-9.47 51.89-9.28L51.89-9.28L51.89-9.28Q51.89-9.19 51.80-9.09L51.80-9.09L51.80-9.09Q51.70-9 51.66-8.86L51.66-8.86L51.66-8.86Q51.52-8.53 51.38-7.92L51.38-7.92L51.38-7.92Q51.28-7.55 51.23-7.31L51.23-7.31L52.03-7.31L52.03-7.31Q52.41-7.31 53.44-7.36L53.44-7.36L53.44-7.36Q53.39-7.03 53.39-5.86L53.39-5.86L53.39-5.20L53.39-5.20Q54.84-6.84 55.41-9.75ZM52.41-6.56L50.11-6.56L50.11-4.13L52.41-4.13L52.41-6.56ZM54.61-4.17L55.41-4.64L55.41-4.64Q55.69-4.27 56.39-2.91L56.39-2.91L56.39-2.91Q56.58-2.63 56.63-2.48L56.63-2.48L55.73-2.02L55.73-2.02Q55.59-2.58 54.61-4.17L54.61-4.17ZM52.41-3.42L50.11-3.42L50.11-1.13L52.41-1.13L52.41-3.42ZM61.22-9.23L61.22-9.23L61.22-9.23Q61.92-9.14 64.17-9.14L64.17-9.14L67.36-9.14L67.36-9.14Q70.50-9.14 70.73-9.23L70.73-9.23L70.73-9.23Q70.64-8.34 70.64-6.38L70.64-6.38L70.64-1.88L70.64-1.88Q70.64 0.70 70.73 0.94L70.73 0.94L69.52 0.94L69.52 0.94Q69.66 0.80 69.66 0.28L69.66 0.28L62.30 0.28L62.30 0.28Q62.30 0.84 62.39 0.94L62.39 0.94L61.22 0.94L61.22 0.94Q61.31 0.80 61.31-1.88L61.31-1.88L61.31-6.52L61.31-6.52Q61.31-8.91 61.22-9.23ZM69.66-8.25L62.30-8.25L62.30-0.47L69.66-0.47L69.66-8.25ZM65.02-8.16L65.02-8.16L65.02-8.16Q66.23-7.88 66.19-7.78L66.19-7.78L66.19-7.78Q66.19-7.73 66.05-7.69L66.05-7.69L66.05-7.69Q65.77-7.50 65.58-7.22L65.58-7.22L65.58-7.22Q66.42-7.22 67.78-7.27L67.78-7.27L67.78-7.27Q68.53-7.27 68.81-7.27L68.81-7.27L68.81-7.27Q67.92-5.91 66.84-4.88L66.84-4.88L66.84-4.88Q67.97-4.22 69.52-4.13L69.52-4.13L69.52-4.13Q69.28-3.80 69-3.23L69-3.23L69-3.23Q68.95-3.09 68.91-3L68.91-3L68.91-3Q67.03-3.61 66.14-4.22L66.14-4.22L66.14-4.22Q65.06-3.61 63.09-3.05L63.09-3.05L63.09-3.05Q62.95-3.52 62.48-3.98L62.48-3.98L62.48-3.98Q64.08-4.13 65.48-4.83L65.48-4.83L65.48-4.83Q65.11-5.16 64.55-5.91L64.55-5.91L64.55-5.91Q64.36-5.72 63.94-5.25L63.94-5.25L63.94-5.25Q63.75-5.06 63.70-5.02L63.70-5.02L63.70-5.02Q63.38-5.25 62.77-5.48L62.77-5.48L62.77-5.48Q64.27-6.23 65.02-8.16ZM67.22-6.52L67.22-6.52L65.11-6.52L64.97-6.38L64.97-6.38Q65.67-5.58 66.19-5.30L66.19-5.30L66.19-5.30Q66.84-5.91 67.22-6.52ZM64.88-3.05L65.30-3.66L65.30-3.66Q66.38-3.47 67.69-2.95L67.69-2.95L67.13-2.16L67.13-2.16Q66.38-2.63 64.88-3.05L64.88-3.05ZM63.98-1.78L63.98-1.78L64.45-2.53L64.45-2.53Q65.95-2.16 67.83-1.41L67.83-1.41L67.22-0.56L67.22-0.56Q66-1.17 63.98-1.78ZM81.52-9.47L81.52-9.47L81.52-9.47Q82.69-8.81 82.69-8.63L82.69-8.63L82.69-8.63Q82.69-8.63 82.59-8.58L82.59-8.58L82.59-8.58Q82.22-8.34 81.98-8.02L81.98-8.02L81.98-8.02Q80.95-6.66 79.36-5.39L79.36-5.39L79.36-5.39Q79.08-5.72 78.47-6.14L78.47-6.14L78.47-6.14Q80.48-7.17 81.52-9.47ZM72.98-7.92L72.98-8.86L72.98-8.86Q73.13-8.86 73.50-8.86L73.50-8.86L73.50-8.86Q74.20-8.81 74.77-8.81L74.77-8.81L76.83-8.81L76.83-8.81Q77.48-8.81 78.38-8.86L78.38-8.86L78.38-8.86Q78.80-8.86 78.94-8.86L78.94-8.86L78.94-7.92L78.94-7.92Q78.94-7.92 78.89-7.92L78.89-7.92L78.89-7.92Q78.47-7.97 77.58-7.97L77.58-7.97L77.58-5.02L77.58-5.02Q78.61-5.02 79.17-5.06L79.17-5.06L79.17-4.13L79.17-4.13Q78.80-4.17 77.58-4.17L77.58-4.17L77.58-1.64L77.58-1.64Q77.58-0.23 77.63 0.56L77.63 0.56L76.59 0.56L76.59 0.56Q76.59 0.47 76.59 0.19L76.59 0.19L76.59 0.19Q76.69-0.70 76.69-1.69L76.69-1.69L76.69-4.17L75.23-4.17L75.23-4.17Q75.23-1.22 73.64 0.75L73.64 0.75L73.64 0.75Q73.08 0.33 72.52 0.14L72.52 0.14L72.52 0.14Q74.20-0.89 74.30-4.17L74.30-4.17L74.30-4.17Q73.83-4.17 73.27-4.13L73.27-4.13L73.27-4.13Q72.94-4.13 72.75-4.13L72.75-4.13L72.75-5.06L72.75-5.06Q73.13-5.02 74.34-5.02L74.34-5.02L74.34-8.02L74.34-8.02Q73.45-7.97 72.98-7.92L72.98-7.92ZM76.69-5.02L76.69-8.02L75.28-8.02L75.28-5.02L76.69-5.02ZM81.98-6.23L81.98-6.23L81.98-6.23Q83.02-5.53 82.97-5.30L82.97-5.30L82.97-5.30Q82.97-5.30 82.92-5.25L82.92-5.25L82.92-5.25Q82.64-5.20 82.41-4.92L82.41-4.92L82.41-4.92Q80.95-3.33 79.27-2.34L79.27-2.34L79.27-2.34Q79.08-2.67 78.47-3.14L78.47-3.14L78.47-3.14Q80.63-4.08 81.98-6.23ZM82.36-3.09L82.36-3.09L82.36-3.09Q83.58-2.34 83.44-2.16L83.44-2.16L83.44-2.16Q83.44-2.11 83.25-2.02L83.25-2.02L83.25-2.02Q82.97-1.88 82.78-1.69L82.78-1.69L82.78-1.69Q80.95 0 78.94 0.89L78.94 0.89L78.94 0.89Q78.70 0.52 78.05 0L78.05 0L78.05 0Q80.48-0.47 82.36-3.09ZM91.27-9.61L91.27-9.61L91.27-9.61Q92.44-9.47 92.53-9.28L92.53-9.28L92.53-9.28Q92.53-9.19 92.44-9.09L92.44-9.09L92.44-9.09Q92.34-9 92.34-8.95L92.34-8.95L92.34-8.95Q93.19-7.13 95.67-6.05L95.67-6.05L95.67-6.05Q95.20-5.72 94.97-5.06L94.97-5.06L94.97-5.06Q92.34-6.47 91.92-8.53L91.92-8.53L91.92-8.53Q91.22-6.84 89.11-4.78L89.11-4.78L89.11-4.78Q88.78-5.16 88.27-5.44L88.27-5.44L88.27-5.44Q90.52-6.89 91.27-9.61ZM93.28-4.27L93.28-4.27L93.28-4.27Q94.45-4.08 94.55-3.84L94.55-3.84L94.55-3.84Q94.55-3.80 94.41-3.66L94.41-3.66L94.41-3.66Q94.27-3.47 94.22-3.33L94.22-3.33L94.22-3.33Q94.17-3.23 94.13-3.05L94.13-3.05L94.13-3.05Q93.56-1.13 93.14-0.05L93.14-0.05L93.42-0.05L93.42-0.05Q94.45-0.05 94.92-0.09L94.92-0.09L94.92 0.70L94.92 0.70Q94.41 0.66 93.42 0.66L93.42 0.66L90.75 0.66L90.75 0.66Q89.44 0.66 88.97 0.70L88.97 0.70L88.97-0.14L88.97-0.14Q89.81-0.05 90.75-0.05L90.75-0.05L92.20-0.05L92.20-0.05Q93-1.88 93.28-4.27ZM90.98-4.08L91.97-4.22L91.97-4.22Q92.30-2.53 92.34-1.41L92.34-1.41L91.36-1.27L91.36-1.27Q91.31-2.81 90.98-4.08L90.98-4.08ZM89.30-3.80L90.14-3.98L90.14-3.98Q90.61-2.81 90.89-0.94L90.89-0.94L89.91-0.75L89.91-0.75Q89.77-2.77 89.30-3.80L89.30-3.80ZM87.33-2.11L87.33-2.11L87.33-1.22L87.33-1.22Q87.05-1.17 86.25-0.98L86.25-0.98L86.25-0.98Q85.03-0.70 84.75-0.66L84.75-0.66L84.56-1.73L84.56-1.73Q85.41-1.78 87.33-2.11ZM88.08-3.89L88.08-3.89L88.08-3.89Q88.36-3.89 88.88-3.94L88.88-3.94L88.88-3.94Q88.88-3.75 88.83-3.33L88.83-3.33L88.83-3.33Q88.73 0.09 88.41 0.42L88.41 0.42L88.41 0.42Q88.08 0.94 86.72 1.13L86.72 1.13L86.72 1.13Q86.53 1.17 86.44 1.17L86.44 1.17L86.44 1.17Q86.34 0.56 85.97 0.05L85.97 0.05L85.97 0.05Q87.23 0.23 87.56-0.14L87.56-0.14L87.56-0.14Q87.89-0.52 87.94-3.14L87.94-3.14L87.94-3.14Q86.91-3.05 85.08-2.91L85.08-2.91L85.08-2.91Q85.17-3.66 85.22-4.92L85.22-4.92L85.22-4.92Q85.27-6.38 85.22-6.98L85.22-6.98L85.22-6.98Q86.34-6.98 86.39-6.80L86.39-6.80L86.39-6.80Q86.39-6.75 86.34-6.61L86.34-6.61L86.34-6.61Q86.25-6.38 86.20-6.14L86.20-6.14L86.20-6.14Q86.20-6.05 86.16-5.81L86.16-5.81L86.16-5.81Q86.02-4.17 86.02-3.75L86.02-3.75L86.02-3.75Q86.11-3.75 86.53-3.75L86.53-3.75L86.53-3.75Q87.05-3.80 87.23-3.80L87.23-3.80L87.23-3.80Q87.42-6.56 87.52-7.78L87.52-7.78L87.52-7.78Q85.36-7.73 84.61-7.59L84.61-7.59L84.61-8.72L84.61-8.72Q85.22-8.67 85.92-8.63L85.92-8.63L85.92-8.63Q86.53-8.63 88.55-8.67L88.55-8.67L88.55-8.67Q88.27-6.42 88.08-3.89ZM90.14-4.88L90.14-5.72L90.14-5.72Q90.23-5.72 90.61-5.72L90.61-5.72L90.61-5.72Q91.27-5.67 91.50-5.67L91.50-5.67L92.11-5.67L92.11-5.67Q92.20-5.67 92.67-5.67L92.67-5.67L92.67-5.67Q93.47-5.72 93.70-5.72L93.70-5.72L93.70-4.83L93.70-4.83Q93.33-4.92 92.16-4.92L92.16-4.92L91.55-4.92L91.55-4.92Q90.56-4.92 90.14-4.88L90.14-4.88ZM97.31-8.95L98.30-9.47L98.30-9.47Q98.91-8.77 99.52-7.50L99.52-7.50L98.53-6.98L98.53-6.98Q97.92-8.30 97.31-8.95L97.31-8.95ZM100.31-7.73L100.31-8.86L100.31-8.86Q100.36-8.86 100.50-8.86L100.50-8.86L100.50-8.86Q101.30-8.77 101.86-8.77L101.86-8.77L105.42-8.77L105.42-8.77Q105.94-8.77 106.64-8.86L106.64-8.86L106.64-8.86Q106.78-8.86 106.83-8.86L106.83-8.86L106.83-7.73L106.83-7.73Q106.78-7.73 106.69-7.73L106.69-7.73L106.69-7.73Q106.03-7.83 105.47-7.83L105.47-7.83L104.11-7.83L104.11-5.06L104.81-5.06L104.81-5.06Q105.84-5.06 106.55-5.16L106.55-5.16L106.55-5.16Q106.64-5.16 106.64-5.16L106.64-5.16L106.64-4.13L106.64-4.13Q106.64-4.13 106.50-4.13L106.50-4.13L106.50-4.13Q105.75-4.22 104.81-4.22L104.81-4.22L104.11-4.22L104.11-0.52L105.56-0.52L105.56-0.52Q106.45-0.52 107.16-0.61L107.16-0.61L107.16-0.61Q107.25-0.61 107.25-0.61L107.25-0.61L107.25 0.42L107.25 0.42Q107.20 0.42 107.06 0.42L107.06 0.42L107.06 0.42Q106.45 0.33 105.61 0.33L105.61 0.33L100.97 0.33L100.97 0.33Q100.22 0.28 99.61 0.42L99.61 0.42L99.61 0.42Q99.52 0.42 99.52 0.42L99.52 0.42L99.52-0.56L99.52-0.56Q99.56-0.56 99.66-0.56L99.66-0.56L99.66-0.56Q100.27-0.47 100.88-0.47L100.88-0.47L100.88-4.31L100.88-4.31Q100.88-5.44 100.83-5.77L100.83-5.77L100.83-5.77Q101.91-5.77 102.05-5.63L102.05-5.63L102.05-5.63Q102.05-5.58 102-5.53L102-5.53L102-5.53Q101.77-5.16 101.77-4.17L101.77-4.17L101.77-0.52L103.13-0.52L103.13-7.83L101.91-7.83L101.91-7.83Q101.11-7.83 100.41-7.73L100.41-7.73L100.41-7.73Q100.31-7.73 100.31-7.73L100.31-7.73ZM96.47-5.11L96.47-6.19L96.47-6.19Q96.52-6.19 96.61-6.19L96.61-6.19L96.61-6.19Q97.17-6.09 97.69-6.09L97.69-6.09L97.69-6.09Q98.39-6.09 98.91-6.19L98.91-6.19L98.91-6.19Q98.95-6.09 98.77-1.22L98.77-1.22L98.77-1.22Q99.14-1.69 99.80-2.67L99.80-2.67L100.36-1.83L100.36-1.83Q98.91-0.23 98.39 0.38L98.39 0.38L97.64-0.28L97.64-0.28Q97.78-0.61 97.88-1.31L97.88-1.31L97.88-1.31Q97.88-2.53 97.97-5.20L97.97-5.20L97.73-5.20L97.73-5.20Q97.17-5.20 96.61-5.11L96.61-5.11L96.61-5.11Q96.52-5.11 96.47-5.11L96.47-5.11ZM113.86-7.97L113.86-9.05L113.86-9.05Q114.70-8.91 115.69-8.91L115.69-8.91L116.95-8.91L116.95-8.91Q117.84-8.91 118.36-9L118.36-9L117.84-4.36L117.84-4.36Q118.78-4.36 119.16-4.41L119.16-4.41L119.16-4.41Q119.11-3.98 119.06-2.77L119.06-2.77L119.06-2.77Q118.97-0.05 118.69 0.19L118.69 0.19L118.69 0.19Q118.22 0.84 116.67 0.89L116.67 0.89L116.67 0.89Q116.63 0.09 116.16-0.33L116.16-0.33L116.16-0.33Q117.56-0.05 117.80-0.47L117.80-0.47L117.80-0.47Q117.94-0.42 118.08-3.47L118.08-3.47L115.31-3.47L115.31-3.47Q114.52-3.47 114.19-3.38L114.19-3.38L114.19-3.38Q114.19-3.42 114.23-3.56L114.23-3.56L114.23-3.56Q114.33-4.13 114.33-4.55L114.33-4.55L114.33-7.36L114.33-7.36Q115.36-7.36 115.50-7.22L115.50-7.22L115.50-7.22Q115.50-7.17 115.45-7.08L115.45-7.08L115.45-7.08Q115.27-6.70 115.27-6.09L115.27-6.09L115.27-4.36L116.91-4.36L117.33-8.06L115.73-8.06L115.73-8.06Q114.52-8.02 113.86-7.97L113.86-7.97ZM108.98-7.73L108.98-8.81L108.98-8.81Q109.73-8.67 110.30-8.67L110.30-8.67L111.80-8.67L111.80-8.67Q112.83-8.72 113.30-8.81L113.30-8.81L113.30-7.73L113.30-7.73Q112.97-7.83 111.70-7.83L111.70-7.83L110.91-5.67L112.17-5.67L112.17-5.67Q112.78-5.67 113.20-5.77L113.20-5.77L113.20-5.77Q113.06-5.16 113.06-4.69L113.06-4.69L113.06-2.20L113.06-2.20Q113.06-1.41 113.20-0.70L113.20-0.70L112.13-0.70L112.13-0.70Q112.17-0.75 112.17-1.59L112.17-1.59L110.81-1.59L110.81-1.59Q110.81-0.84 110.91 0L110.91 0L109.78 0L109.78 0Q109.92-0.70 109.92-1.73L109.92-1.73L109.92-4.13L109.92-4.13Q109.69-3.80 109.03-2.91L109.03-2.91L109.03-2.91Q108.84-3.42 108.42-3.80L108.42-3.80L108.42-3.80Q109.78-4.73 110.77-7.83L110.77-7.83L110.25-7.83L110.25-7.83Q109.17-7.83 108.98-7.73L108.98-7.73ZM112.17-4.92L110.81-4.92L110.81-2.39L112.17-2.39L112.17-4.92ZM117.38-2.34L117.38-2.34L117.38-1.27L117.38-1.27Q116.63-1.36 115.78-1.36L115.78-1.36L115.03-1.36L115.03-1.36Q114.14-1.36 113.58-1.27L113.58-1.27L113.58-2.34L113.58-2.34Q114.47-2.20 114.94-2.20L114.94-2.20L115.83-2.20L115.83-2.20Q116.77-2.20 117.38-2.34Z" transform="translate(-0.75, 9.796875)"></path></g></g></g></g></svg>
