<svg data-v-09eb608e="" version="1.0" xmlns="http://www.w3.org/2000/svg" xmlns:xlink="http://www.w3.org/1999/xlink" width="100%" height="100%" viewBox="0 0 340.000000 250.000000" preserveAspectRatio="xMidYMid meet" color-interpolation-filters="sRGB" class="el-tooltip" style="margin: auto;"><rect data-v-09eb608e="" x="0" y="0" width="100%" height="100%" fill="#fff" fill-opacity="1"></rect>  <g data-v-09eb608e="" fill="#f39f14" class="icon-text-wrapper icon-svg-group iconsvg" transform="translate(57.12805938720703,55.13726806640625)"><g class="iconsvg-imagesvg" transform="translate(82.860107421875,0)"><rect fill="#f39f14" fill-opacity="0" stroke-width="2" x="0" y="0" width="60" height="78.541082164329" class="image-rect"></rect> <svg x="0" y="0" width="60" height="78.541082164329" filtersec="colorsb3325002520" class="image-svg-svg"><svg xmlns="http://www.w3.org/2000/svg" viewBox="0 0 99.8 130.64"><g><g><path d="M46.57 25s-2.07-4.21 1.18-11.79L51 5.59s-2-1.59.21-4.37 5.57-.38 5.15 2.36a3.48 3.48 0 0 1-3.22 2.89 56.47 56.47 0 0 0-4.29 10.91c-1.68 6.1.13 7.47.13 7.47zM42.5 28.08s-4-6.3-2.59-12.69 1.77-7.76 1.77-7.76 3.5-2.51 2-5.62-6-1.32-6.05 2 1.69 3.58 1.69 3.58a34.72 34.72 0 0 0-1.87 11.51 26.57 26.57 0 0 0 3.2 10.78z" fill="#f39f14"></path><path d="M55.93 24.89s-1.08-11.22 3.16-11.79 6.16 3.27 3.43 6.92-4.12 5.13-4.12 5.13z" fill="#eed387"></path><path d="M60.73 16.65c-1.5-1-2.95 1-3.36 2.14a12 12 0 0 0-.37 5.46.67.67 0 0 0 1.21.26.62.62 0 0 0 .35-.14 10.12 10.12 0 0 0 2.25-3.89c.43-1.06 1.11-3.01-.08-3.83z" fill="#f39f14"></path><path d="M32.59 27.12s-4.28-11-10.06-8.31-1.7 7.39 1.76 7.78A38.26 38.26 0 0 1 30.87 28z" fill="#eed387"></path><path d="M31.54 27.21a.67.67 0 0 0 .3-.47.53.53 0 0 0-.16-.48 10 10 0 0 0-4.93-4.43c-1.25-.41-3.19-.16-4 1-1.06 1.56 1.53 2.69 2.55 3s2 .38 2.94.75a6.26 6.26 0 0 0 2.9.8.72.72 0 0 0 .4-.17z" fill="#f39f14"></path><path d="M78.83 61.68L95.25 54s-7.42-31.59-51-30.76-62 68.86-22.72 95.66 65.05 1.5 73.25-13.23a38 38 0 0 0 3.7-28.72H58.24l2.13 16.92 21-.5S68 117.1 42.15 108.9 7.38 56.56 30.37 44.59c33.32-17.36 48.46 17.09 48.46 17.09z" fill="#eeb81e"></path><path d="M63.21 43.9s2-7 5.79-6.42 7.22 3.85 11.53 3.85 4.8 2.94 4 6-6.25 4.6-7.41 7S75.56 56 75.56 56s-6.24-8.71-12.35-12.1zM61.24 28.2c-2.18.42-1.65 2.94 0 5.88s8.55 1 9.19-1.1-6.34-5.33-9.19-4.78zM25 31.86c-3.49 1.36-3.58 2.59-4.5 6s-6.33 4-4.13 7.17 8.08 3.68 8.08 3.68A19.56 19.56 0 0 1 28 46c2.34-1.4 2.77-1.63 2.77-1.63s4.63-5.54 3-8.78-6.88-4.48-8.77-3.73zM10.13 42.67s3.54 2.89 3.17 5.33-1.65 8.49-.83 11-2.29 5.9-4.4 4.1A46.11 46.11 0 0 1 3 57.31s2.75-9.08 7.13-14.64zM17.16 51.5c-1.56.34-2 4.44-1.38 5.36s2.59-2.58 3.18-3.31.04-2.44-1.8-2.05zM3.66 66C.44 68.25 1.89 73.3 3 77.8S4.76 91 9.81 90.1s8.08-4.34 5.33-13.19S6.78 63.72 3.66 66zM19.57 84.29s-5 9.67-4.07 15 6.62 13.31 6.62 16.62 8.17-.91 9.09-4 5.63-5.28 5.63-5.28a43.83 43.83 0 0 1-17.27-22.34zM34.24 112.34c-2.21.6-4 1.41-2.3 6.39s7.17 6.18 12.86 7.38 5.05-2.65 4.5-6.88-.82-7.45-5.42-6.26-6.61-1.44-9.64-.63zM10.18 94.05c-3.81-.6-3.86 6-.74 8.45s4.78-7.8.74-8.45zM38.67 23.69s-4.89 2.67-4.2 4.81 5 3.86 5.23 6.61 3.24.76 7.24-.89 6.06.55 7.37-1.59-.55-9.07-.55-9.07-9.23-1.27-15.09.13zM56.93 36.08c-2.09.1-4.41.26-4.55 1.37s3 .14 5.44 1.86 4.13.76 4.55-.69-2.55-2.68-5.44-2.54zM75.68 30.13s-2.11 2.16-1.68 4.16 2.8 1.49 5.84 2.19 3.63 1.72 5 2.86a2.65 2.65 0 0 0 2.69.56s-5.74-6.9-11.85-9.77zM89.9 43s-1.91-.14-1.56 3.09-.35 4.27-2.21 7.38a7.68 7.68 0 0 0-1.28 5.41L95.25 54s-2.62-8.81-5.35-11zM56.93 130.58s-1.18-3.2 2.55-6 11.64-4.49 15.22-4.29a13.54 13.54 0 0 1 5.83 1.59s-10.37 8.5-23.6 8.7zM79 101.65c-3.21 3.33-7 4.27-8.89 7.72s-6.82 3-5.58 6.2 15.36 2.68 19.66-1.45 8.34-6.68 6.46-12.05-9.82-2.28-11.65-.42zM71.48 93.57s-8.08-8.24-5.74-12.1 4.07-2.55 10.82-2.62 9.23-3.58 14.19.14 8.39 8.2 3.75 10.68-13.12 3.66-13.12 3.66z" fill="#bb5216"></path></g></g></svg></svg> <!----></g> <g transform="translate(0,85.5730972290039)"><g class="tp-name iconsvg-namesvg" transform="translate(0,0)"><g><path d="M12.67-21.88L23.90-21.88L23.90-0.13L23.90-0.13Q23.90 1.71 23.48 3.15L23.48 3.15L23.48 3.15Q23.05 4.58 22.24 5.57L22.24 5.57L22.24 5.57Q21.21 6.83 19.75 7.30L19.75 7.30L19.75 7.30Q18.29 7.77 15.50 7.77L15.50 7.77L3.50 7.77L3.50 3.10L14.69 3.10L14.69 3.10Q16.67 3.10 17.28 2.49L17.28 2.49L17.28 2.49Q17.88 1.89 17.88 0L17.88 0L12.36 0L12.36 0Q9.71 0 7.98-0.56L7.98-0.56L7.98-0.56Q6.25-1.12 4.85-2.43L4.85-2.43L4.85-2.43Q1.57-5.53 1.57-10.96L1.57-10.96L1.57-10.96Q1.57-17.16 5.57-19.99L5.57-19.99L5.57-19.99Q7.01-21.03 8.60-21.45L8.60-21.45L8.60-21.45Q10.20-21.88 12.67-21.88L12.67-21.88ZM17.88-4.67L17.88-17.21L12.90-17.21L12.90-17.21Q7.68-17.21 7.68-10.92L7.68-10.92L7.68-10.92Q7.68-7.86 9.10-6.27L9.10-6.27L9.10-6.27Q10.51-4.67 13.21-4.67L13.21-4.67L17.88-4.67ZM29.79 0L29.79-21.88L35.81-21.88L35.81 0L29.79 0ZM35.81-24.13L29.79-24.13L29.79-29.97L35.81-29.97L35.81-24.13ZM43.54 0L43.54-17.21L39.63-17.21L39.63-21.88L43.54-21.88L43.54-23.18L43.54-23.18Q43.54-26.73 45.04-28.35L45.04-28.35L45.04-28.35Q46.55-29.97 49.92-29.97L49.92-29.97L55.17-29.97L55.17-25.30L52.12-25.30L52.12-25.30Q49.51-25.39 49.56-22.87L49.56-22.87L49.56-21.88L55.22-21.88L55.22-17.21L49.56-17.21L49.56 0L43.54 0ZM72.56-5.35L81.73-5.35L81.73 0L71.26 0L71.26 0Q68.29 0 66.72-0.31L66.72-0.31L66.72-0.31Q61.20-1.39 58.86-6.47L58.86-6.47L58.86-6.47Q57.33-9.88 57.33-14.92L57.33-14.92L57.33-14.92Q57.33-20.94 59.67-24.71L59.67-24.71L59.67-24.71Q61.38-27.45 64.23-28.71L64.23-28.71L64.23-28.71Q67.08-29.97 71.57-29.97L71.57-29.97L81.73-29.97L81.73-24.62L72.29-24.62L72.29-24.62Q68.03-24.62 66.05-22.33L66.05-22.33L66.05-22.33Q64.39-20.44 64.39-15.50L64.39-15.50L64.39-15.50Q64.39-8.85 66.95-6.78L66.95-6.78L66.95-6.78Q68.74-5.35 72.56-5.35L72.56-5.35ZM93.77-13.30L101.14-13.30L101.14-13.30Q101.14-15.59 100.22-16.40L100.22-16.40L100.22-16.40Q99.30-17.21 96.56-17.21L96.56-17.21L86.40-17.21L86.40-21.88L96.56-21.88L96.56-21.88Q99.30-21.88 100.33-21.77L100.33-21.77L100.33-21.77Q101.36-21.66 102.44-21.34L102.44-21.34L102.44-21.34Q107.43-19.45 107.16-12.31L107.16-12.31L107.16 0L94.49 0L94.49 0Q91.07 0 89.77-0.20L89.77-0.20L89.77-0.20Q88.47-0.40 87.48-1.03L87.48-1.03L87.48-1.03Q84.83-2.83 84.83-6.47L84.83-6.47L84.83-6.47Q84.83-8.67 85.88-10.40L85.88-10.40L85.88-10.40Q86.94-12.13 88.69-12.76L88.69-12.76L88.69-12.76Q90.22-13.30 93.77-13.30L93.77-13.30ZM101.14-4.67L101.14-8.63L94.22-8.63L93.19-8.63L93.19-8.63Q92.15-8.63 91.55-8.09L91.55-8.09L91.55-8.09Q90.94-7.55 90.94-6.60L90.94-6.60L90.94-6.60Q90.94-5.57 91.68-5.12L91.68-5.12L91.68-5.12Q92.42-4.67 94.22-4.67L94.22-4.67L101.14-4.67ZM112.78 8.22L112.78-21.88L123.29-21.88L123.29-21.88Q126.34-21.88 127.92-21.50L127.92-21.50L127.92-21.50Q129.49-21.12 130.93-19.99L130.93-19.99L130.93-19.99Q134.84-16.94 134.84-10.60L134.84-10.60L134.84-10.60Q134.84-5.80 131.96-2.83L131.96-2.83L131.96-2.83Q130.52-1.35 128.66-0.67L128.66-0.67L128.66-0.67Q126.79 0 124.10 0L124.10 0L118.80 0L118.80 8.22L112.78 8.22ZM122.89-17.21L118.80-17.21L118.80-4.67L122.48-4.67L122.48-4.67Q125.40-4.67 126.75-5.93L126.75-5.93L126.75-5.93Q128.64-7.59 128.64-11.05L128.64-11.05L128.64-11.05Q128.64-14.02 127.15-15.61L127.15-15.61L127.15-15.61Q125.67-17.21 122.89-17.21L122.89-17.21ZM137.04-21.88L140.86-21.88L140.86-29.97L146.88-29.97L146.88-21.88L152.45-21.88L152.45-17.21L146.88-17.21L146.88-9.26L146.88-9.26Q146.88-6.47 147.37-5.75L147.37-5.75L147.37-5.75Q148.14-4.67 150.07-4.67L150.07-4.67L152.45-4.67L152.45 0L148.09 0L148.09 0Q144.18 0 142.52-1.89L142.52-1.89L142.52-1.89Q140.86-3.77 140.86-8.22L140.86-8.22L140.86-17.21L137.04-17.21L137.04-21.88ZM166.60-21.88L174.83-21.88L174.83-17.21L167.64-17.21L167.64-17.21Q164.00-17.21 162.60-15.59L162.60-15.59L162.60-15.59Q161.26-14.06 161.26-10.92L161.26-10.92L161.26-10.92Q161.26-7.41 163.46-5.80L163.46-5.80L163.46-5.80Q164.36-5.17 165.41-4.92L165.41-4.92L165.41-4.92Q166.47-4.67 168.36-4.67L168.36-4.67L174.83-4.67L174.83 0L166.60 0L166.60 0Q163.28 0 161.35-0.67L161.35-0.67L161.35-0.67Q159.41-1.35 157.93-3.01L157.93-3.01L157.93-3.01Q155.10-6.16 155.10-11.01L155.10-11.01L155.10-11.01Q155.10-16.85 158.47-19.72L158.47-19.72L158.47-19.72Q159.82-20.89 161.71-21.39L161.71-21.39L161.71-21.39Q163.59-21.88 166.60-21.88L166.60-21.88ZM179.41-29.97L185.43-29.97L185.43-21.88L191.58-21.88L191.58-21.88Q194.33-21.88 195.88-21.45L195.88-21.45L195.88-21.45Q197.43-21.03 198.50-19.95L198.50-19.95L198.50-19.95Q200.57-18.06 200.57-13.61L200.57-13.61L200.57 0L194.55 0L194.55-12.45L194.55-12.45Q194.55-14.20 194.39-14.94L194.39-14.94L194.39-14.94Q194.24-15.68 193.74-16.22L193.74-16.22L193.74-16.22Q192.84-17.16 190.33-17.21L190.33-17.21L185.43-17.21L185.43 0L179.41 0L179.41-29.97ZM213.91-13.30L221.28-13.30L221.28-13.30Q221.28-15.59 220.36-16.40L220.36-16.40L220.36-16.40Q219.44-17.21 216.70-17.21L216.70-17.21L206.55-17.21L206.55-21.88L216.70-21.88L216.70-21.88Q219.44-21.88 220.47-21.77L220.47-21.77L220.47-21.77Q221.51-21.66 222.59-21.34L222.59-21.34L222.59-21.34Q227.57-19.45 227.30-12.31L227.30-12.31L227.30 0L214.63 0L214.63 0Q211.22 0 209.92-0.20L209.92-0.20L209.92-0.20Q208.61-0.40 207.62-1.03L207.62-1.03L207.62-1.03Q204.97-2.83 204.97-6.47L204.97-6.47L204.97-6.47Q204.97-8.67 206.03-10.40L206.03-10.40L206.03-10.40Q207.09-12.13 208.84-12.76L208.84-12.76L208.84-12.76Q210.37-13.30 213.91-13.30L213.91-13.30ZM221.28-4.67L221.28-8.63L214.36-8.63L213.33-8.63L213.33-8.63Q212.30-8.63 211.69-8.09L211.69-8.09L211.69-8.09Q211.08-7.55 211.08-6.60L211.08-6.60L211.08-6.60Q211.08-5.57 211.83-5.12L211.83-5.12L211.83-5.12Q212.57-4.67 214.36-4.67L214.36-4.67L221.28-4.67Z" transform="translate(-1.5725727681188, 29.968743895292)"></path></g> <!----> <!----> <!----> <!----> <!----> <!----> <!----></g> <g class="tp-slogan iconsvg-slogansvg" fill="#bb5216" transform="translate(74.73638534545898,45.189998626708984)"><!----> <!----> <!----> <g><path d="M7.31-3.61L4.69-3.61L4.69-4.59L8.44-4.59L8.44 0L7.69 0L7.41-1.08L7.41-1.08Q6.42 0.09 4.59 0.14L4.59 0.14L4.59 0.14Q2.86 0.14 1.92-0.75L1.92-0.75L1.92-0.75Q0.52-2.06 0.56-4.36L0.56-4.36L0.56-4.36Q0.89-8.63 4.64-8.81L4.64-8.81L4.64-8.81Q7.83-8.63 8.30-6L8.30-6L7.17-6L7.17-6Q6.70-7.78 4.59-7.83L4.59-7.83L4.59-7.83Q1.92-7.64 1.78-4.31L1.78-4.31L1.78-4.31Q1.78-0.75 4.64-0.75L4.64-0.75L4.64-0.75Q5.67-0.75 6.42-1.31L6.42-1.31L6.42-1.31Q7.36-2.06 7.31-3.61L7.31-3.61ZM10.41-8.58L11.58-8.58L11.58 0L10.41 0L10.41-8.58ZM19.08-3.89L14.86-3.89L14.86 0L13.69 0L13.69-8.58L19.64-8.58L19.64-7.59L14.86-7.59L14.86-4.92L19.08-4.92L19.08-3.89ZM27.98-6.05L27.98-6.05L26.86-6.05L26.86-6.05Q26.44-7.78 24.47-7.83L24.47-7.83L24.47-7.83Q21.75-7.69 21.66-4.36L21.66-4.36L21.66-4.36Q21.66-0.80 24.52-0.80L24.52-0.80L24.52-0.80Q26.48-0.84 26.95-3.19L26.95-3.19L28.08-3.19L28.08-3.19Q27.56 0.05 24.28 0.14L24.28 0.14L24.28 0.14Q20.53 0 20.44-4.31L20.44-4.31L20.44-4.31Q20.63-8.63 24.47-8.81L24.47-8.81L24.47-8.81Q27.52-8.72 27.98-6.05ZM35.11 0L34.27-2.48L30.80-2.48L29.91 0L28.73 0L31.97-8.58L33.28-8.58L36.38 0L35.11 0ZM32.53-7.31L31.17-3.52L33.84-3.52L32.58-7.31L32.53-7.31ZM41.06-7.64L38.72-7.64L38.72-4.64L41.02-4.64L41.02-4.64Q42.80-4.64 42.80-6.19L42.80-6.19L42.80-6.19Q42.80-7.59 41.06-7.64L41.06-7.64ZM41.44-3.61L38.72-3.61L38.72 0L37.55 0L37.55-8.58L41.44-8.58L41.44-8.58Q43.88-8.48 43.97-6.19L43.97-6.19L43.97-6.19Q43.83-3.70 41.44-3.61L41.44-3.61ZM47.58-7.59L44.67-7.59L44.67-8.58L51.61-8.58L51.61-7.59L48.70-7.59L48.70 0L47.58 0L47.58-7.59ZM59.81-6.05L59.81-6.05L58.69-6.05L58.69-6.05Q58.27-7.78 56.30-7.83L56.30-7.83L56.30-7.83Q53.58-7.69 53.48-4.36L53.48-4.36L53.48-4.36Q53.48-0.80 56.34-0.80L56.34-0.80L56.34-0.80Q58.31-0.84 58.78-3.19L58.78-3.19L59.91-3.19L59.91-3.19Q59.39 0.05 56.11 0.14L56.11 0.14L56.11 0.14Q52.36 0 52.27-4.31L52.27-4.31L52.27-4.31Q52.45-8.63 56.30-8.81L56.30-8.81L56.30-8.81Q59.34-8.72 59.81-6.05ZM62.44-5.06L66.94-5.06L66.94-8.58L68.11-8.58L68.11 0L66.94 0L66.94-3.98L62.44-3.98L62.44 0L61.27 0L61.27-8.58L62.44-8.58L62.44-5.06ZM75.56 0L74.72-2.48L71.25-2.48L70.36 0L69.19 0L72.42-8.58L73.73-8.58L76.83 0L75.56 0ZM72.98-7.31L71.63-3.52L74.30-3.52L73.03-7.31L72.98-7.31Z" transform="translate(-0.56098790322581, 8.8125)"></path></g></g></g></g></svg>
